<svg width="237" height="62" viewBox="0 0 237 62" fill="none" xmlns="http://www.w3.org/2000/svg">
  <path fill-rule="evenodd" clip-rule="evenodd"
        d="M156.93 18.5325H152.613V16.411C152.613 15.8382 152.848 15.2892 153.265 14.8862C153.682 14.4831 154.247 14.2596 154.834 14.2652H157.008V11.4588C157.008 7.39768 160.567 5.16406 164.53 5.16406C165.996 5.17848 167.445 5.46973 168.797 6.02175L166.912 10.2253C166.35 9.90869 165.719 9.72885 165.071 9.70101C163.915 9.70101 162.897 10.3496 162.897 11.9831V14.2622H168.375V18.5294H162.878V35.1588H156.937L156.93 18.5325ZM142.447 7.74622V31.0007H142.457C142.457 34.677 144.677 35.5771 147.379 35.5771C148.818 35.5493 150.252 35.4095 151.668 35.1588V30.8704C151.144 30.9443 150.616 30.9869 150.087 30.9977C148.932 30.9977 148.202 30.5764 148.202 29.5945V5.60352H144.646C144.063 5.60271 143.504 5.82811 143.091 6.23003C142.679 6.63195 142.447 7.17741 142.447 7.74622ZM135.228 5.61857H133.582V5.60645C132.369 5.60645 131.386 6.56576 131.386 7.74915V8.1795C131.386 9.36288 132.369 10.3222 133.582 10.3222H135.228C135.81 10.323 136.369 10.0975 136.781 9.69551C137.193 9.2935 137.424 8.74803 137.423 8.1795V7.76127C137.424 7.19274 137.193 6.64727 136.781 6.24526C136.369 5.84325 135.81 5.61776 135.228 5.61857ZM58.6088 14.2617H54.8633H54.8602C54.277 14.2609 53.7174 14.4862 53.3044 14.888C52.8915 15.2899 52.659 15.8353 52.6582 16.4044V43.8231H58.6119V33.0732C60.2673 34.8704 62.7146 35.5826 65.2364 35.5826C71.8641 35.5826 75.4232 30.5396 75.4232 24.7025C75.4232 18.926 71.8516 13.8223 65.3296 13.8223C62.8761 13.8223 60.261 14.5557 58.6088 16.3529V14.2617ZM63.8895 18.5295C67.8462 18.5295 69.6164 21.2268 69.6164 24.7C69.6164 28.1732 67.8524 30.9553 63.8895 30.9553C59.9265 30.9553 58.088 28.2156 58.088 24.7C58.088 21.1844 59.9328 18.5295 63.8895 18.5295ZM78.7113 26.8219V16.4054C78.7121 15.8348 78.9458 15.2879 79.3608 14.8858C79.7758 14.4837 80.3378 14.2595 80.9226 14.2627H84.4072V26.1643C84.4072 28.8919 85.9601 30.8709 88.9105 30.8709C92.1405 30.8709 94.2151 29.3253 94.2151 25.6824V16.4085C94.2168 15.2246 95.2008 14.2658 96.414 14.2658H99.9235V35.1624H94.2027V32.7136C92.3175 34.7866 89.5814 35.5806 87.2459 35.5806C81.0654 35.5806 78.7051 31.1861 78.7051 26.8159L78.7113 26.8219ZM110.516 14.2744H106.77V14.2623C105.557 14.2623 104.573 15.2211 104.571 16.405V43.8358H110.516V33.0859C112.171 34.8831 114.618 35.5954 117.14 35.5954C123.765 35.5954 127.327 30.5523 127.327 24.7152C127.327 18.9387 123.755 13.835 117.233 13.835C114.783 13.835 112.162 14.5684 110.516 16.3656V14.2744ZM121.524 24.7078C121.522 21.2368 119.752 18.5418 115.794 18.5418C111.834 18.5418 109.995 21.1967 109.995 24.7123C109.995 28.2279 111.834 30.9677 115.794 30.9677C119.752 30.9677 121.522 28.1819 121.524 24.7078ZM133.715 14.2657H137.271V35.1624H131.544V16.4054C131.546 15.2309 132.514 14.276 133.718 14.2627L133.715 14.2657ZM176.31 5.60651H174.673C174.089 5.60328 173.527 5.82769 173.113 6.22997C172.699 6.63224 172.467 7.1791 172.468 7.74921V8.16744C172.467 8.73597 172.698 9.28144 173.11 9.68345C173.522 10.0855 174.081 10.3109 174.664 10.3101H176.31C177.522 10.3101 178.505 9.35082 178.505 8.16744V7.74921C178.505 6.56583 177.522 5.60651 176.31 5.60651ZM174.807 14.2657H178.36V35.1624H172.614V16.4054C172.616 15.2215 173.6 14.2627 174.813 14.2627L174.807 14.2657ZM189.343 14.2651H185.927L185.933 14.2621C184.721 14.2638 183.739 15.2221 183.737 16.4048V35.1587H189.312V26.3303C189.312 21.0175 192.107 18.8021 194.787 18.8293C195.695 18.8292 196.586 19.0747 197.359 19.5385L199.977 15.3562C198.844 14.3257 197.213 13.8408 195.66 13.8408C193.02 13.8408 190.356 15.2501 189.343 17.7807V14.2651ZM200.741 29.2119L204.017 27.9239C204.639 29.4392 205.906 31.3546 209.039 31.3546C211.704 31.3546 212.859 29.9726 212.859 28.8695C212.859 27.434 210.887 26.9788 208.552 26.44C205.169 25.6594 201.027 24.7034 201.027 20.335C201.027 15.9193 205.226 13.8281 209.775 13.8281C213.145 13.8281 215.847 15.0101 217.695 17.0346C217.967 17.3331 218.082 17.7374 218.007 18.1299C217.931 18.5223 217.674 18.8587 217.31 19.0409L214.266 20.5138C213.465 19.2167 212.145 17.8559 209.608 17.8559C207.723 17.8559 206.564 18.6742 206.564 19.6561C206.564 20.89 208.392 21.354 210.62 21.9194C214.094 22.8012 218.54 23.9296 218.54 28.6088C218.54 33.4397 213.801 35.5794 209.347 35.5794C205.114 35.5794 201.738 33.6519 200.132 31.0788C199.931 30.7567 199.885 30.3651 200.005 30.0068C200.125 29.6484 200.399 29.3592 200.756 29.215L200.741 29.2119ZM224.873 18.5294V29.3854C224.873 33.1919 227.631 35.5771 232.227 35.5771C233.682 35.5778 235.129 35.3664 236.52 34.9497V30.3279C235.485 30.7819 234.37 31.0371 233.237 31.0795C231.727 31.0795 230.619 30.4946 230.619 28.4853V18.5294H236.52V14.2622H230.619V5.42168L225.96 8.42812C225.338 8.82467 224.967 9.50356 224.976 10.2284V14.2652H223.283C222.07 14.2652 221.086 15.2241 221.084 16.4079V18.5294H224.873ZM21.6347 19.6719C23.9573 19.6713 26.0517 21.036 26.9411 23.1298C27.8307 25.224 27.3396 27.6351 25.6969 29.2381C24.0541 30.8412 21.5834 31.3204 19.4373 30.4523C17.2912 29.5841 15.8925 27.5397 15.8938 25.2726C15.8938 23.7867 16.4989 22.3617 17.5759 21.3112C18.6526 20.2612 20.1126 19.6715 21.6347 19.6719ZM21.6327 8.5645C29.9157 8.5645 37.1707 15.7775 41.1678 20.7236H41.1616C43.3151 23.387 43.3177 27.1435 41.1678 29.8097C37.1614 34.7588 29.9126 41.9718 21.6327 41.9718C19.6651 41.9522 17.7186 41.5739 15.8933 40.8565V34.9679C20.4045 37.5168 26.108 36.7889 29.7957 33.1935C33.4834 29.5982 34.2345 24.0332 31.6265 19.6287C29.0185 15.2242 23.7027 13.08 18.669 14.4022C13.6353 15.7244 10.1407 20.1828 10.1508 25.2697V37.6652C6.84944 35.271 4.07602 32.2615 2.09767 29.8157C-0.0572954 27.1498 -0.0572954 23.3896 2.09767 20.7236C6.10406 15.7775 13.3497 8.5645 21.6327 8.5645Z"
        fill="white"/>
  <path d="M162.835 47.745C162.779 47.2772 162.555 46.9141 162.161 46.6555C161.767 46.397 161.284 46.2678 160.711 46.2678C160.293 46.2678 159.926 46.3355 159.613 46.4709C159.302 46.6063 159.059 46.7925 158.883 47.0295C158.711 47.2665 158.625 47.5357 158.625 47.8374C158.625 48.0897 158.685 48.3067 158.805 48.4883C158.928 48.6668 159.085 48.8161 159.276 48.9361C159.466 49.053 159.666 49.15 159.876 49.2269C160.085 49.3008 160.277 49.3608 160.453 49.407L161.413 49.6655C161.659 49.7301 161.933 49.8194 162.235 49.9332C162.539 50.0471 162.83 50.2025 163.107 50.3995C163.387 50.5934 163.618 50.8427 163.8 51.1474C163.981 51.4521 164.072 51.826 164.072 52.2692C164.072 52.7801 163.938 53.2417 163.67 53.6541C163.406 54.0665 163.018 54.3943 162.507 54.6374C161.999 54.8806 161.382 55.0021 160.656 55.0021C159.979 55.0021 159.393 54.8929 158.897 54.6744C158.405 54.4558 158.017 54.1512 157.734 53.7603C157.454 53.3694 157.295 52.9155 157.258 52.3984H158.44C158.471 52.7554 158.591 53.0509 158.8 53.2848C159.012 53.5156 159.28 53.688 159.603 53.8018C159.93 53.9126 160.28 53.968 160.656 53.968C161.093 53.968 161.485 53.8973 161.833 53.7557C162.181 53.611 162.456 53.411 162.659 53.1555C162.863 52.897 162.964 52.5954 162.964 52.2507C162.964 51.9368 162.876 51.6813 162.701 51.4844C162.526 51.2874 162.295 51.1274 162.009 51.0043C161.722 50.8812 161.413 50.7734 161.081 50.6811L159.917 50.3487C159.179 50.1364 158.594 49.8332 158.163 49.4393C157.732 49.0453 157.517 48.5298 157.517 47.8928C157.517 47.3634 157.66 46.9018 157.946 46.5078C158.235 46.1108 158.623 45.803 159.109 45.5845C159.599 45.3629 160.145 45.2521 160.748 45.2521C161.358 45.2521 161.899 45.3614 162.373 45.5799C162.847 45.7953 163.223 46.0908 163.5 46.4663C163.78 46.8417 163.927 47.268 163.943 47.745H162.835ZM178.567 48.3359H177.423C177.355 48.0066 177.236 47.7173 177.067 47.468C176.901 47.2188 176.698 47.0095 176.458 46.8402C176.221 46.6679 175.958 46.5386 175.668 46.4524C175.379 46.3662 175.077 46.3232 174.763 46.3232C174.191 46.3232 173.672 46.4678 173.208 46.7571C172.746 47.0464 172.378 47.4727 172.104 48.0359C171.834 48.5991 171.698 49.29 171.698 50.1087C171.698 50.9273 171.834 51.6183 172.104 52.1815C172.378 52.7447 172.746 53.1709 173.208 53.4602C173.672 53.7495 174.191 53.8942 174.763 53.8942C175.077 53.8942 175.379 53.8511 175.668 53.7649C175.958 53.6787 176.221 53.551 176.458 53.3817C176.698 53.2094 176.901 52.9986 177.067 52.7493C177.236 52.4969 177.355 52.2076 177.423 51.8814H178.567C178.481 52.3646 178.324 52.797 178.097 53.1786C177.869 53.5603 177.586 53.8849 177.247 54.1527C176.909 54.4174 176.528 54.619 176.107 54.7575C175.688 54.896 175.24 54.9652 174.763 54.9652C173.957 54.9652 173.24 54.7682 172.612 54.3743C171.984 53.9804 171.49 53.4202 171.13 52.6939C170.77 51.9676 170.59 51.1058 170.59 50.1087C170.59 49.1115 170.77 48.2498 171.13 47.5234C171.49 46.7971 171.984 46.237 172.612 45.843C173.24 45.4491 173.957 45.2521 174.763 45.2521C175.24 45.2521 175.688 45.3214 176.107 45.4599C176.528 45.5984 176.909 45.8015 177.247 46.0692C177.586 46.3339 177.869 46.6571 178.097 47.0387C178.324 47.4173 178.481 47.8497 178.567 48.3359ZM185.422 54.8359V45.3814H186.567V49.5916H191.609V45.3814H192.753V54.8359H191.609V50.6072H186.567V54.8359H185.422ZM208.028 50.1087C208.028 51.1058 207.848 51.9676 207.488 52.6939C207.128 53.4202 206.634 53.9804 206.006 54.3743C205.378 54.7682 204.661 54.9652 203.854 54.9652C203.048 54.9652 202.331 54.7682 201.703 54.3743C201.075 53.9804 200.581 53.4202 200.221 52.6939C199.861 51.9676 199.681 51.1058 199.681 50.1087C199.681 49.1115 199.861 48.2498 200.221 47.5234C200.581 46.7971 201.075 46.237 201.703 45.843C202.331 45.4491 203.048 45.2521 203.854 45.2521C204.661 45.2521 205.378 45.4491 206.006 45.843C206.634 46.237 207.128 46.7971 207.488 47.5234C207.848 48.2498 208.028 49.1115 208.028 50.1087ZM206.92 50.1087C206.92 49.29 206.783 48.5991 206.509 48.0359C206.238 47.4727 205.87 47.0464 205.406 46.7571C204.944 46.4678 204.427 46.3232 203.854 46.3232C203.282 46.3232 202.763 46.4678 202.299 46.7571C201.837 47.0464 201.469 47.4727 201.195 48.0359C200.925 48.5991 200.789 49.29 200.789 50.1087C200.789 50.9273 200.925 51.6183 201.195 52.1815C201.469 52.7447 201.837 53.1709 202.299 53.4602C202.763 53.7495 203.282 53.8942 203.854 53.8942C204.427 53.8942 204.944 53.7495 205.406 53.4602C205.87 53.1709 206.238 52.7447 206.509 52.1815C206.783 51.6183 206.92 50.9273 206.92 50.1087ZM222.935 50.1087C222.935 51.1058 222.755 51.9676 222.395 52.6939C222.035 53.4202 221.541 53.9804 220.913 54.3743C220.285 54.7682 219.568 54.9652 218.762 54.9652C217.955 54.9652 217.238 54.7682 216.611 54.3743C215.983 53.9804 215.489 53.4202 215.129 52.6939C214.769 51.9676 214.589 51.1058 214.589 50.1087C214.589 49.1115 214.769 48.2498 215.129 47.5234C215.489 46.7971 215.983 46.237 216.611 45.843C217.238 45.4491 217.955 45.2521 218.762 45.2521C219.568 45.2521 220.285 45.4491 220.913 45.843C221.541 46.237 222.035 46.7971 222.395 47.5234C222.755 48.2498 222.935 49.1115 222.935 50.1087ZM221.827 50.1087C221.827 49.29 221.69 48.5991 221.416 48.0359C221.145 47.4727 220.778 47.0464 220.313 46.7571C219.851 46.4678 219.334 46.3232 218.762 46.3232C218.189 46.3232 217.671 46.4678 217.206 46.7571C216.744 47.0464 216.377 47.4727 216.103 48.0359C215.832 48.5991 215.696 49.29 215.696 50.1087C215.696 50.9273 215.832 51.6183 216.103 52.1815C216.377 52.7447 216.744 53.1709 217.206 53.4602C217.671 53.7495 218.189 53.8942 218.762 53.8942C219.334 53.8942 219.851 53.7495 220.313 53.4602C220.778 53.1709 221.145 52.7447 221.416 52.1815C221.69 51.6183 221.827 50.9273 221.827 50.1087ZM229.865 54.8359V45.3814H231.01V53.8203H235.405V54.8359H229.865Z"
        fill="white"/>
</svg>